# xmcd CD database file
#
# Track frame offsets:
#	150
#	11187
#	24164
#	36897
#	49119
#	61845
#	72483
#	83030
#	96813
#	106085
#	117016
#	129330
#	141106
#	153470
#	168016
#	180145
#	191218
#	203776
#	216720
#	229114
#	243162
#	252971
#	264615
#	279676
#
# Disc length: 3875 seconds
#
# Revision: 0
# Processed by: cddbd v1.4PL0 Copyright (c) Steve Scherf et al.
# Submitted via: CDex 1.51
#
DISCID=4b0f2118
DTITLE=Golden Gate Quartet - A Portait Of The Golden Gate Quartet - CD 2
DYEAR=1998
DGENRE=Jazz
TTITLE0=Jonah in the whale
TTITLE1=I looked down the road and wondered
TTITLE2=Every time that I feel the spirit
TTITLE3=Timber
TTITLE4=Jezebel
TTITLE5=Hide me in thy bossom
TTITLE6=My wlking stick
TTITLE7=Pick a bale of cotton
TTITLE8=Ol' man Mose
TTITLE9=What's new
TTITLE10=Daniel saw the stone
TTITLE11=Noah
TTITLE12=Whoa Babe
TTITLE13=I'm a pilgrim
TTITLE14=Anyhow
TTITLE15=Didn't it rain
TTITLE16=He said he could calm the ocean
TTITLE17=You'd better mind
TTITLE18=The valley of time
TTITLE19=Midnight special
TTITLE20=The sun didin't shine
TTITLE21=Toll the bell easy
TTITLE22=He never said a mumblin' word
TTITLE23=What a time
EXTD=YEAR: 1998
EXTT0=
EXTT1=
EXTT2=
EXTT3=
EXTT4=
EXTT5=
EXTT6=
EXTT7=
EXTT8=
EXTT9=
EXTT10=
EXTT11=
EXTT12=
EXTT13=
EXTT14=
EXTT15=
EXTT16=
EXTT17=
EXTT18=
EXTT19=
EXTT20=
EXTT21=
EXTT22=
EXTT23=
PLAYORDER=
